<svg xmlns="http://www.w3.org/2000/svg" xmlns:xlink="http://www.w3.org/1999/xlink" width="280" zoomAndPan="magnify" viewBox="0 0 210 83.249999" height="111" preserveAspectRatio="xMidYMid meet" version="1.0"><defs><g/><clipPath id="96d6cb211a"><path d="M 43.523438 2 L 166 2 L 166 27.503906 L 43.523438 27.503906 Z M 43.523438 2 " clip-rule="nonzero"/></clipPath></defs><g fill="#ffffff" fill-opacity="1"><g transform="translate(25.14498, 51.970986)"><g><path d="M 7.453125 0 L 0.421875 -23.453125 L 4.796875 -23.453125 L 9.796875 -6.1875 L 14.984375 -22.09375 L 18.25 -22.09375 L 23.453125 -6.1875 L 28.4375 -23.453125 L 32.828125 -23.453125 L 25.78125 0 L 21.71875 0 L 16.609375 -15.4375 L 11.515625 0 Z M 7.453125 0 "/></g></g></g><g fill="#ffffff" fill-opacity="1"><g transform="translate(58.385904, 51.970986)"><g><path d="M 6.9375 0.328125 C 5.8125 0.328125 4.789062 0.117188 3.875 -0.296875 C 2.957031 -0.710938 2.234375 -1.328125 1.703125 -2.140625 C 1.171875 -2.960938 0.90625 -3.945312 0.90625 -5.09375 C 0.90625 -5.988281 1.070312 -6.742188 1.40625 -7.359375 C 1.75 -7.972656 2.21875 -8.460938 2.8125 -8.828125 C 3.414062 -9.203125 4.117188 -9.472656 4.921875 -9.640625 C 5.722656 -9.804688 6.585938 -9.890625 7.515625 -9.890625 L 11.828125 -9.890625 C 11.828125 -10.941406 11.550781 -11.785156 11 -12.421875 C 10.445312 -13.066406 9.632812 -13.390625 8.5625 -13.390625 C 7.925781 -13.390625 7.359375 -13.28125 6.859375 -13.0625 C 6.359375 -12.84375 5.925781 -12.554688 5.5625 -12.203125 C 5.207031 -11.847656 4.90625 -11.460938 4.65625 -11.046875 L 1.5625 -13.296875 C 2.09375 -14.023438 2.6875 -14.660156 3.34375 -15.203125 C 4.007812 -15.742188 4.769531 -16.164062 5.625 -16.46875 C 6.476562 -16.769531 7.445312 -16.921875 8.53125 -16.921875 C 10.03125 -16.921875 11.3125 -16.628906 12.375 -16.046875 C 13.445312 -15.472656 14.269531 -14.664062 14.84375 -13.625 C 15.414062 -12.59375 15.703125 -11.40625 15.703125 -10.0625 L 15.703125 0 L 12.359375 0 L 12.09375 -2.375 C 11.382812 -1.332031 10.59375 -0.617188 9.71875 -0.234375 C 8.84375 0.140625 7.914062 0.328125 6.9375 0.328125 Z M 7.515625 -3.09375 C 8.085938 -3.09375 8.628906 -3.191406 9.140625 -3.390625 C 9.660156 -3.597656 10.113281 -3.882812 10.5 -4.25 C 10.894531 -4.613281 11.210938 -5.023438 11.453125 -5.484375 C 11.691406 -5.953125 11.816406 -6.445312 11.828125 -6.96875 L 7.75 -6.96875 C 6.832031 -6.96875 6.15625 -6.757812 5.71875 -6.34375 C 5.28125 -5.9375 5.0625 -5.476562 5.0625 -4.96875 C 5.0625 -4.425781 5.273438 -3.976562 5.703125 -3.625 C 6.128906 -3.269531 6.734375 -3.09375 7.515625 -3.09375 Z M 7.515625 -3.09375 "/></g></g></g><g fill="#ffffff" fill-opacity="1"><g transform="translate(75.993804, 51.970986)"><g><path d="M 7.40625 0.328125 C 6.238281 0.328125 5.175781 0.117188 4.21875 -0.296875 C 3.269531 -0.710938 2.472656 -1.269531 1.828125 -1.96875 C 1.179688 -2.675781 0.722656 -3.457031 0.453125 -4.3125 L 3.671875 -5.734375 C 3.828125 -5.335938 4.035156 -4.929688 4.296875 -4.515625 C 4.566406 -4.097656 4.9375 -3.742188 5.40625 -3.453125 C 5.875 -3.160156 6.472656 -3.015625 7.203125 -3.015625 C 7.828125 -3.015625 8.335938 -3.117188 8.734375 -3.328125 C 9.128906 -3.535156 9.421875 -3.789062 9.609375 -4.09375 C 9.796875 -4.40625 9.890625 -4.707031 9.890625 -5 C 9.890625 -5.394531 9.738281 -5.710938 9.4375 -5.953125 C 9.144531 -6.191406 8.75 -6.382812 8.25 -6.53125 C 7.75 -6.6875 7.203125 -6.835938 6.609375 -6.984375 C 6.015625 -7.128906 5.421875 -7.304688 4.828125 -7.515625 C 4.242188 -7.722656 3.703125 -8 3.203125 -8.34375 C 2.703125 -8.6875 2.300781 -9.128906 2 -9.671875 C 1.707031 -10.222656 1.5625 -10.921875 1.5625 -11.765625 C 1.5625 -12.640625 1.726562 -13.398438 2.0625 -14.046875 C 2.40625 -14.691406 2.863281 -15.226562 3.4375 -15.65625 C 4.007812 -16.082031 4.664062 -16.398438 5.40625 -16.609375 C 6.144531 -16.816406 6.914062 -16.921875 7.71875 -16.921875 C 9.144531 -16.921875 10.390625 -16.597656 11.453125 -15.953125 C 12.523438 -15.316406 13.375 -14.441406 14 -13.328125 L 10.875 -11.609375 C 10.6875 -11.953125 10.445312 -12.285156 10.15625 -12.609375 C 9.875 -12.929688 9.523438 -13.195312 9.109375 -13.40625 C 8.691406 -13.613281 8.179688 -13.71875 7.578125 -13.71875 C 6.921875 -13.71875 6.398438 -13.578125 6.015625 -13.296875 C 5.628906 -13.015625 5.4375 -12.679688 5.4375 -12.296875 C 5.4375 -11.941406 5.585938 -11.648438 5.890625 -11.421875 C 6.203125 -11.203125 6.609375 -11.015625 7.109375 -10.859375 C 7.609375 -10.703125 8.15625 -10.539062 8.75 -10.375 C 9.351562 -10.207031 9.953125 -10 10.546875 -9.75 C 11.148438 -9.507812 11.703125 -9.203125 12.203125 -8.828125 C 12.703125 -8.453125 13.101562 -7.96875 13.40625 -7.375 C 13.71875 -6.789062 13.875 -6.0625 13.875 -5.1875 C 13.875 -4.226562 13.6875 -3.398438 13.3125 -2.703125 C 12.9375 -2.015625 12.4375 -1.441406 11.8125 -0.984375 C 11.1875 -0.535156 10.488281 -0.207031 9.71875 0 C 8.957031 0.21875 8.1875 0.328125 7.40625 0.328125 Z M 7.40625 0.328125 "/></g></g></g><g fill="#ffffff" fill-opacity="1"><g transform="translate(91.079177, 51.970986)"><g><path d="M 2.4375 0 L 2.4375 -23.453125 L 6.546875 -23.453125 L 6.546875 -14.65625 C 7.210938 -15.46875 7.976562 -16.046875 8.84375 -16.390625 C 9.707031 -16.742188 10.539062 -16.921875 11.34375 -16.921875 C 12.425781 -16.921875 13.351562 -16.722656 14.125 -16.328125 C 14.90625 -15.941406 15.539062 -15.410156 16.03125 -14.734375 C 16.53125 -14.066406 16.894531 -13.316406 17.125 -12.484375 C 17.351562 -11.660156 17.46875 -10.816406 17.46875 -9.953125 L 17.46875 0 L 13.359375 0 L 13.359375 -9.4375 C 13.359375 -10.125 13.273438 -10.753906 13.109375 -11.328125 C 12.953125 -11.910156 12.660156 -12.378906 12.234375 -12.734375 C 11.804688 -13.085938 11.1875 -13.265625 10.375 -13.265625 C 9.507812 -13.265625 8.796875 -13.050781 8.234375 -12.625 C 7.671875 -12.195312 7.25 -11.613281 6.96875 -10.875 C 6.6875 -10.144531 6.546875 -9.316406 6.546875 -8.390625 L 6.546875 0 Z M 2.4375 0 "/></g></g></g><g fill="#ffffff" fill-opacity="1"><g transform="translate(110.479399, 51.970986)"><g><path d="M 22.015625 -1.296875 L 19.171875 1.265625 L 16.078125 -2.265625 C 15.128906 -1.441406 14.054688 -0.796875 12.859375 -0.328125 C 11.660156 0.140625 10.378906 0.375 9.015625 0.375 C 7.941406 0.375 6.9375 0.25 6 0 C 5.070312 -0.25 4.253906 -0.625 3.546875 -1.125 C 2.847656 -1.625 2.300781 -2.238281 1.90625 -2.96875 C 1.519531 -3.695312 1.328125 -4.53125 1.328125 -5.46875 C 1.328125 -6.351562 1.472656 -7.148438 1.765625 -7.859375 C 2.066406 -8.578125 2.472656 -9.222656 2.984375 -9.796875 C 3.503906 -10.367188 4.085938 -10.890625 4.734375 -11.359375 C 5.378906 -11.835938 6.050781 -12.28125 6.75 -12.6875 C 6.5 -12.945312 6.210938 -13.257812 5.890625 -13.625 C 5.578125 -14 5.273438 -14.421875 4.984375 -14.890625 C 4.691406 -15.359375 4.453125 -15.875 4.265625 -16.4375 C 4.078125 -17 3.984375 -17.59375 3.984375 -18.21875 C 3.984375 -19.082031 4.164062 -19.851562 4.53125 -20.53125 C 4.90625 -21.21875 5.398438 -21.796875 6.015625 -22.265625 C 6.640625 -22.742188 7.335938 -23.109375 8.109375 -23.359375 C 8.890625 -23.609375 9.675781 -23.734375 10.46875 -23.734375 C 11.320312 -23.734375 12.125 -23.59375 12.875 -23.3125 C 13.625 -23.039062 14.285156 -22.65625 14.859375 -22.15625 C 15.429688 -21.65625 15.878906 -21.070312 16.203125 -20.40625 C 16.523438 -19.75 16.6875 -19.03125 16.6875 -18.25 C 16.6875 -17.3125 16.492188 -16.46875 16.109375 -15.71875 C 15.722656 -14.976562 15.207031 -14.304688 14.5625 -13.703125 C 13.925781 -13.097656 13.226562 -12.535156 12.46875 -12.015625 L 15.78125 -8.296875 C 16.15625 -9.359375 16.34375 -10.441406 16.34375 -11.546875 L 20.296875 -11.15625 C 20.242188 -10.082031 20.066406 -9.039062 19.765625 -8.03125 C 19.460938 -7.019531 19.050781 -6.078125 18.53125 -5.203125 Z M 7.875 -18.15625 C 7.875 -17.75 7.988281 -17.3125 8.21875 -16.84375 C 8.445312 -16.382812 8.710938 -15.945312 9.015625 -15.53125 C 9.328125 -15.125 9.609375 -14.773438 9.859375 -14.484375 C 10.441406 -14.835938 10.960938 -15.203125 11.421875 -15.578125 C 11.890625 -15.953125 12.257812 -16.351562 12.53125 -16.78125 C 12.800781 -17.207031 12.9375 -17.675781 12.9375 -18.1875 C 12.9375 -18.601562 12.84375 -18.988281 12.65625 -19.34375 C 12.476562 -19.707031 12.207031 -20 11.84375 -20.21875 C 11.476562 -20.445312 11.03125 -20.5625 10.5 -20.5625 C 10.039062 -20.5625 9.609375 -20.46875 9.203125 -20.28125 C 8.804688 -20.101562 8.484375 -19.832031 8.234375 -19.46875 C 7.992188 -19.113281 7.875 -18.675781 7.875 -18.15625 Z M 8.90625 -3.046875 C 9.875 -3.046875 10.757812 -3.21875 11.5625 -3.5625 C 12.375 -3.914062 13.085938 -4.394531 13.703125 -5 L 9.28125 -10.0625 C 8.539062 -9.601562 7.863281 -9.140625 7.25 -8.671875 C 6.644531 -8.210938 6.15625 -7.71875 5.78125 -7.1875 C 5.414062 -6.65625 5.234375 -6.0625 5.234375 -5.40625 C 5.234375 -4.625 5.570312 -4.035156 6.25 -3.640625 C 6.9375 -3.242188 7.820312 -3.046875 8.90625 -3.046875 Z M 8.90625 -3.046875 "/></g></g></g><g fill="#ffffff" fill-opacity="1"><g transform="translate(133.414473, 51.970986)"><g><path d="M 12.71875 0.328125 C 11.175781 0.328125 9.789062 0.117188 8.5625 -0.296875 C 7.34375 -0.710938 6.28125 -1.296875 5.375 -2.046875 C 4.476562 -2.804688 3.726562 -3.691406 3.125 -4.703125 C 2.53125 -5.710938 2.085938 -6.816406 1.796875 -8.015625 C 1.503906 -9.210938 1.359375 -10.453125 1.359375 -11.734375 C 1.359375 -13.015625 1.5 -14.25 1.78125 -15.4375 C 2.070312 -16.632812 2.515625 -17.738281 3.109375 -18.75 C 3.703125 -19.769531 4.445312 -20.660156 5.34375 -21.421875 C 6.238281 -22.179688 7.296875 -22.769531 8.515625 -23.1875 C 9.742188 -23.613281 11.128906 -23.828125 12.671875 -23.828125 C 14.210938 -23.828125 15.640625 -23.566406 16.953125 -23.046875 C 18.265625 -22.535156 19.425781 -21.78125 20.4375 -20.78125 C 21.445312 -19.78125 22.269531 -18.550781 22.90625 -17.09375 L 19.171875 -15.53125 C 18.816406 -16.59375 18.3125 -17.460938 17.65625 -18.140625 C 17.007812 -18.828125 16.257812 -19.332031 15.40625 -19.65625 C 14.5625 -19.976562 13.640625 -20.140625 12.640625 -20.140625 C 11.398438 -20.140625 10.332031 -19.914062 9.4375 -19.46875 C 8.539062 -19.019531 7.804688 -18.410156 7.234375 -17.640625 C 6.660156 -16.878906 6.234375 -16.003906 5.953125 -15.015625 C 5.679688 -14.023438 5.546875 -12.984375 5.546875 -11.890625 C 5.546875 -10.734375 5.679688 -9.640625 5.953125 -8.609375 C 6.234375 -7.585938 6.660156 -6.6875 7.234375 -5.90625 C 7.816406 -5.132812 8.554688 -4.53125 9.453125 -4.09375 C 10.359375 -3.65625 11.445312 -3.4375 12.71875 -3.4375 C 13.84375 -3.4375 14.867188 -3.671875 15.796875 -4.140625 C 16.722656 -4.617188 17.492188 -5.296875 18.109375 -6.171875 C 18.722656 -7.054688 19.109375 -8.09375 19.265625 -9.28125 L 13.9375 -9.28125 L 13.9375 -12.671875 L 23.34375 -12.671875 L 23.34375 0 L 20.015625 0 L 19.640625 -3.296875 C 19.222656 -2.566406 18.671875 -1.925781 17.984375 -1.375 C 17.296875 -0.832031 16.503906 -0.410156 15.609375 -0.109375 C 14.710938 0.179688 13.75 0.328125 12.71875 0.328125 Z M 12.71875 0.328125 "/></g></g></g><g fill="#ffffff" fill-opacity="1"><g transform="translate(158.872068, 51.970986)"><g><path d="M 12.671875 0.328125 C 11.128906 0.328125 9.742188 0.117188 8.515625 -0.296875 C 7.296875 -0.710938 6.238281 -1.300781 5.34375 -2.0625 C 4.445312 -2.820312 3.703125 -3.707031 3.109375 -4.71875 C 2.515625 -5.738281 2.070312 -6.84375 1.78125 -8.03125 C 1.5 -9.226562 1.359375 -10.460938 1.359375 -11.734375 C 1.359375 -13.015625 1.5 -14.242188 1.78125 -15.421875 C 2.070312 -16.609375 2.515625 -17.710938 3.109375 -18.734375 C 3.703125 -19.753906 4.445312 -20.640625 5.34375 -21.390625 C 6.238281 -22.148438 7.296875 -22.738281 8.515625 -23.15625 C 9.742188 -23.582031 11.128906 -23.796875 12.671875 -23.796875 C 14.222656 -23.796875 15.609375 -23.582031 16.828125 -23.15625 C 18.054688 -22.738281 19.117188 -22.148438 20.015625 -21.390625 C 20.910156 -20.640625 21.648438 -19.753906 22.234375 -18.734375 C 22.828125 -17.710938 23.269531 -16.609375 23.5625 -15.421875 C 23.851562 -14.242188 24 -13.015625 24 -11.734375 C 24 -10.460938 23.851562 -9.226562 23.5625 -8.03125 C 23.269531 -6.84375 22.828125 -5.738281 22.234375 -4.71875 C 21.648438 -3.707031 20.910156 -2.820312 20.015625 -2.0625 C 19.117188 -1.300781 18.054688 -0.710938 16.828125 -0.296875 C 15.609375 0.117188 14.222656 0.328125 12.671875 0.328125 Z M 12.671875 -3.40625 C 13.929688 -3.40625 15 -3.628906 15.875 -4.078125 C 16.75 -4.523438 17.453125 -5.132812 17.984375 -5.90625 C 18.523438 -6.675781 18.921875 -7.5625 19.171875 -8.5625 C 19.421875 -9.570312 19.546875 -10.628906 19.546875 -11.734375 C 19.546875 -12.835938 19.421875 -13.882812 19.171875 -14.875 C 18.921875 -15.875 18.523438 -16.757812 17.984375 -17.53125 C 17.453125 -18.3125 16.75 -18.925781 15.875 -19.375 C 15 -19.820312 13.929688 -20.046875 12.671875 -20.046875 C 11.410156 -20.046875 10.34375 -19.820312 9.46875 -19.375 C 8.601562 -18.925781 7.898438 -18.3125 7.359375 -17.53125 C 6.816406 -16.757812 6.421875 -15.875 6.171875 -14.875 C 5.929688 -13.882812 5.8125 -12.835938 5.8125 -11.734375 C 5.8125 -10.628906 5.929688 -9.570312 6.171875 -8.5625 C 6.421875 -7.5625 6.816406 -6.675781 7.359375 -5.90625 C 7.898438 -5.132812 8.601562 -4.523438 9.46875 -4.078125 C 10.34375 -3.628906 11.410156 -3.40625 12.671875 -3.40625 Z M 12.671875 -3.40625 "/></g></g></g><g clip-path="url(#96d6cb211a)"><path fill="#ffffff" d="M 43.703125 27.210938 C 47.285156 13.082031 64.21875 11.367188 90.257812 13.753906 C 84.988281 11.566406 79.09375 11.613281 72.777344 10.933594 C 94.179688 0.40625 115.378906 7.199219 128.003906 16.617188 C 148.625 14.453125 159.632812 18.851562 165.839844 26.539062 C 162.765625 17.5 150.0625 13.328125 129.753906 12.976562 C 109.855469 0.378906 89.425781 0 68.632812 8 C 62.816406 9.75 57.171875 11.671875 49.546875 11.320312 C 49.8125 11.992188 50.21875 12.589844 50.863281 12.976562 C 44.875 16.863281 43.542969 21.859375 43.703125 27.210938 Z M 43.703125 27.210938 " fill-opacity="1" fill-rule="evenodd"/></g><g fill="#ffffff" fill-opacity="1"><g transform="translate(22.266509, 74.870431)"><g><path d="M 0.546875 0 L 2.484375 -9.203125 L 3.5625 -9.203125 L 1.8125 -0.96875 L 5.375 -0.96875 L 5.171875 0 Z M 0.546875 0 "/></g></g></g><g fill="#ffffff" fill-opacity="1"><g transform="translate(28.37938, 74.870431)"><g><path d="M 4.015625 -7.03125 C 4.398438 -7.03125 4.742188 -6.925781 5.046875 -6.71875 C 5.347656 -6.507812 5.585938 -6.207031 5.765625 -5.8125 L 5.828125 -5.8125 L 6.25 -6.90625 L 7.046875 -6.90625 L 5.578125 0 L 4.75 0 L 4.90625 -1.3125 L 4.859375 -1.3125 C 4.109375 -0.351562 3.316406 0.125 2.484375 0.125 C 1.898438 0.125 1.441406 -0.0820312 1.109375 -0.5 C 0.773438 -0.914062 0.609375 -1.484375 0.609375 -2.203125 C 0.609375 -3.078125 0.757812 -3.882812 1.0625 -4.625 C 1.363281 -5.375 1.773438 -5.960938 2.296875 -6.390625 C 2.816406 -6.816406 3.390625 -7.03125 4.015625 -7.03125 Z M 2.828125 -0.75 C 3.234375 -0.75 3.632812 -0.941406 4.03125 -1.328125 C 4.4375 -1.710938 4.765625 -2.21875 5.015625 -2.84375 C 5.273438 -3.46875 5.40625 -4.09375 5.40625 -4.71875 C 5.40625 -5.15625 5.285156 -5.5 5.046875 -5.75 C 4.816406 -6.007812 4.507812 -6.140625 4.125 -6.140625 C 3.6875 -6.140625 3.28125 -5.957031 2.90625 -5.59375 C 2.53125 -5.226562 2.234375 -4.738281 2.015625 -4.125 C 1.804688 -3.507812 1.703125 -2.859375 1.703125 -2.171875 C 1.703125 -1.691406 1.800781 -1.332031 2 -1.09375 C 2.195312 -0.863281 2.472656 -0.75 2.828125 -0.75 Z M 2.828125 -0.75 "/></g></g></g><g fill="#ffffff" fill-opacity="1"><g transform="translate(35.663202, 74.870431)"><g/></g></g><g fill="#ffffff" fill-opacity="1"><g transform="translate(39.012374, 74.870431)"><g><path d="M 3.4375 0.125 C 3.019531 0.125 2.660156 0.0195312 2.359375 -0.1875 C 2.054688 -0.394531 1.820312 -0.6875 1.65625 -1.0625 L 1.59375 -1.0625 L 1.5625 -0.828125 C 1.550781 -0.722656 1.53125 -0.578125 1.5 -0.390625 C 1.46875 -0.203125 1.226562 0.957031 0.78125 3.09375 L -0.265625 3.09375 L 1.84375 -6.90625 L 2.71875 -6.90625 L 2.5625 -5.578125 L 2.609375 -5.578125 C 3.359375 -6.535156 4.140625 -7.015625 4.953125 -7.015625 C 5.523438 -7.015625 5.972656 -6.804688 6.296875 -6.390625 C 6.628906 -5.984375 6.796875 -5.410156 6.796875 -4.671875 C 6.796875 -3.785156 6.648438 -2.96875 6.359375 -2.21875 C 6.078125 -1.476562 5.679688 -0.898438 5.171875 -0.484375 C 4.660156 -0.078125 4.082031 0.125 3.4375 0.125 Z M 4.59375 -6.140625 C 4.195312 -6.140625 3.789062 -5.9375 3.375 -5.53125 C 2.957031 -5.132812 2.625 -4.632812 2.375 -4.03125 C 2.132812 -3.425781 2.015625 -2.804688 2.015625 -2.171875 C 2.015625 -1.710938 2.128906 -1.359375 2.359375 -1.109375 C 2.585938 -0.867188 2.925781 -0.75 3.375 -0.75 C 3.78125 -0.75 4.160156 -0.914062 4.515625 -1.25 C 4.878906 -1.59375 5.171875 -2.078125 5.390625 -2.703125 C 5.609375 -3.335938 5.71875 -4.003906 5.71875 -4.703125 C 5.71875 -5.660156 5.34375 -6.140625 4.59375 -6.140625 Z M 4.59375 -6.140625 "/></g></g></g><g fill="#ffffff" fill-opacity="1"><g transform="translate(46.45358, 74.870431)"><g><path d="M 4.734375 -7.03125 C 5.023438 -7.03125 5.273438 -7 5.484375 -6.9375 L 5.265625 -5.984375 C 5.035156 -6.046875 4.8125 -6.078125 4.59375 -6.078125 C 4.21875 -6.078125 3.863281 -5.945312 3.53125 -5.6875 C 3.195312 -5.4375 2.90625 -5.085938 2.65625 -4.640625 C 2.40625 -4.203125 2.222656 -3.707031 2.109375 -3.15625 L 1.421875 0 L 0.375 0 L 1.84375 -6.90625 L 2.71875 -6.90625 L 2.578125 -5.625 L 2.640625 -5.625 C 2.941406 -6.019531 3.191406 -6.300781 3.390625 -6.46875 C 3.585938 -6.644531 3.796875 -6.78125 4.015625 -6.875 C 4.234375 -6.976562 4.472656 -7.03125 4.734375 -7.03125 Z M 4.734375 -7.03125 "/></g></g></g><g fill="#ffffff" fill-opacity="1"><g transform="translate(51.559181, 74.870431)"><g><path d="M 4.046875 -6.984375 C 4.847656 -6.984375 5.476562 -6.75 5.9375 -6.28125 C 6.394531 -5.8125 6.625 -5.160156 6.625 -4.328125 C 6.625 -3.535156 6.472656 -2.789062 6.171875 -2.09375 C 5.867188 -1.394531 5.457031 -0.851562 4.9375 -0.46875 C 4.425781 -0.09375 3.847656 0.09375 3.203125 0.09375 C 2.390625 0.09375 1.753906 -0.140625 1.296875 -0.609375 C 0.835938 -1.085938 0.609375 -1.738281 0.609375 -2.5625 C 0.609375 -3.351562 0.757812 -4.097656 1.0625 -4.796875 C 1.375 -5.503906 1.789062 -6.046875 2.3125 -6.421875 C 2.832031 -6.796875 3.410156 -6.984375 4.046875 -6.984375 Z M 5.53125 -4.46875 C 5.53125 -4.957031 5.398438 -5.347656 5.140625 -5.640625 C 4.878906 -5.941406 4.523438 -6.09375 4.078125 -6.09375 C 3.617188 -6.09375 3.207031 -5.9375 2.84375 -5.625 C 2.476562 -5.320312 2.195312 -4.894531 2 -4.34375 C 1.800781 -3.789062 1.703125 -3.175781 1.703125 -2.5 C 1.703125 -1.945312 1.832031 -1.519531 2.09375 -1.21875 C 2.363281 -0.925781 2.75 -0.78125 3.25 -0.78125 C 3.6875 -0.78125 4.078125 -0.929688 4.421875 -1.234375 C 4.773438 -1.535156 5.046875 -1.96875 5.234375 -2.53125 C 5.429688 -3.101562 5.53125 -3.75 5.53125 -4.46875 Z M 5.53125 -4.46875 "/></g></g></g><g fill="#ffffff" fill-opacity="1"><g transform="translate(58.79264, 74.870431)"><g><path d="M 3.4375 0.125 C 3.019531 0.125 2.660156 0.0195312 2.359375 -0.1875 C 2.054688 -0.394531 1.820312 -0.6875 1.65625 -1.0625 L 1.59375 -1.0625 L 1.5625 -0.828125 C 1.550781 -0.722656 1.53125 -0.578125 1.5 -0.390625 C 1.46875 -0.203125 1.226562 0.957031 0.78125 3.09375 L -0.265625 3.09375 L 1.84375 -6.90625 L 2.71875 -6.90625 L 2.5625 -5.578125 L 2.609375 -5.578125 C 3.359375 -6.535156 4.140625 -7.015625 4.953125 -7.015625 C 5.523438 -7.015625 5.972656 -6.804688 6.296875 -6.390625 C 6.628906 -5.984375 6.796875 -5.410156 6.796875 -4.671875 C 6.796875 -3.785156 6.648438 -2.96875 6.359375 -2.21875 C 6.078125 -1.476562 5.679688 -0.898438 5.171875 -0.484375 C 4.660156 -0.078125 4.082031 0.125 3.4375 0.125 Z M 4.59375 -6.140625 C 4.195312 -6.140625 3.789062 -5.9375 3.375 -5.53125 C 2.957031 -5.132812 2.625 -4.632812 2.375 -4.03125 C 2.132812 -3.425781 2.015625 -2.804688 2.015625 -2.171875 C 2.015625 -1.710938 2.128906 -1.359375 2.359375 -1.109375 C 2.585938 -0.867188 2.925781 -0.75 3.375 -0.75 C 3.78125 -0.75 4.160156 -0.914062 4.515625 -1.25 C 4.878906 -1.59375 5.171875 -2.078125 5.390625 -2.703125 C 5.609375 -3.335938 5.71875 -4.003906 5.71875 -4.703125 C 5.71875 -5.660156 5.34375 -6.140625 4.59375 -6.140625 Z M 4.59375 -6.140625 "/></g></g></g><g fill="#ffffff" fill-opacity="1"><g transform="translate(66.233845, 74.870431)"><g><path d="M 4.734375 -7.03125 C 5.023438 -7.03125 5.273438 -7 5.484375 -6.9375 L 5.265625 -5.984375 C 5.035156 -6.046875 4.8125 -6.078125 4.59375 -6.078125 C 4.21875 -6.078125 3.863281 -5.945312 3.53125 -5.6875 C 3.195312 -5.4375 2.90625 -5.085938 2.65625 -4.640625 C 2.40625 -4.203125 2.222656 -3.707031 2.109375 -3.15625 L 1.421875 0 L 0.375 0 L 1.84375 -6.90625 L 2.71875 -6.90625 L 2.578125 -5.625 L 2.640625 -5.625 C 2.941406 -6.019531 3.191406 -6.300781 3.390625 -6.46875 C 3.585938 -6.644531 3.796875 -6.78125 4.015625 -6.875 C 4.234375 -6.976562 4.472656 -7.03125 4.734375 -7.03125 Z M 4.734375 -7.03125 "/></g></g></g><g fill="#ffffff" fill-opacity="1"><g transform="translate(71.339446, 74.870431)"><g><path d="M 3.09375 0.125 C 2.320312 0.125 1.710938 -0.101562 1.265625 -0.5625 C 0.828125 -1.019531 0.609375 -1.65625 0.609375 -2.46875 C 0.609375 -3.25 0.765625 -4 1.078125 -4.71875 C 1.390625 -5.445312 1.804688 -6.015625 2.328125 -6.421875 C 2.847656 -6.828125 3.414062 -7.03125 4.03125 -7.03125 C 4.675781 -7.03125 5.160156 -6.890625 5.484375 -6.609375 C 5.804688 -6.328125 5.96875 -5.9375 5.96875 -5.4375 C 5.96875 -4.6875 5.617188 -4.09375 4.921875 -3.65625 C 4.222656 -3.226562 3.226562 -3.015625 1.9375 -3.015625 L 1.71875 -3.015625 L 1.703125 -2.515625 C 1.703125 -1.960938 1.828125 -1.53125 2.078125 -1.21875 C 2.335938 -0.914062 2.738281 -0.765625 3.28125 -0.765625 C 3.550781 -0.765625 3.820312 -0.800781 4.09375 -0.875 C 4.375 -0.945312 4.722656 -1.085938 5.140625 -1.296875 L 5.140625 -0.375 C 4.742188 -0.1875 4.394531 -0.0546875 4.09375 0.015625 C 3.789062 0.0859375 3.457031 0.125 3.09375 0.125 Z M 3.96875 -6.125 C 3.539062 -6.125 3.132812 -5.925781 2.75 -5.53125 C 2.375 -5.132812 2.082031 -4.585938 1.875 -3.890625 L 1.953125 -3.890625 C 2.910156 -3.890625 3.644531 -4.015625 4.15625 -4.265625 C 4.664062 -4.515625 4.921875 -4.875 4.921875 -5.34375 C 4.921875 -5.570312 4.84375 -5.757812 4.6875 -5.90625 C 4.539062 -6.050781 4.300781 -6.125 3.96875 -6.125 Z M 3.96875 -6.125 "/></g></g></g><g fill="#ffffff" fill-opacity="1"><g transform="translate(77.697837, 74.870431)"><g><path d="M 2.484375 -0.734375 C 2.710938 -0.734375 3.015625 -0.789062 3.390625 -0.90625 L 3.390625 -0.09375 C 3.242188 -0.03125 3.066406 0.0195312 2.859375 0.0625 C 2.648438 0.101562 2.484375 0.125 2.359375 0.125 C 1.835938 0.125 1.4375 0 1.15625 -0.25 C 0.875 -0.5 0.734375 -0.867188 0.734375 -1.359375 C 0.734375 -1.640625 0.769531 -1.957031 0.84375 -2.3125 L 1.65625 -6.09375 L 0.5625 -6.09375 L 0.65625 -6.5625 L 1.8125 -7.046875 L 2.609375 -8.484375 L 3.21875 -8.484375 L 2.875 -6.90625 L 4.59375 -6.90625 L 4.4375 -6.09375 L 2.71875 -6.09375 L 1.90625 -2.296875 C 1.832031 -1.929688 1.796875 -1.65625 1.796875 -1.46875 C 1.796875 -1.226562 1.851562 -1.046875 1.96875 -0.921875 C 2.09375 -0.796875 2.265625 -0.734375 2.484375 -0.734375 Z M 2.484375 -0.734375 "/></g></g></g><g fill="#ffffff" fill-opacity="1"><g transform="translate(81.878007, 74.870431)"><g><path d="M 3.09375 0.125 C 2.320312 0.125 1.710938 -0.101562 1.265625 -0.5625 C 0.828125 -1.019531 0.609375 -1.65625 0.609375 -2.46875 C 0.609375 -3.25 0.765625 -4 1.078125 -4.71875 C 1.390625 -5.445312 1.804688 -6.015625 2.328125 -6.421875 C 2.847656 -6.828125 3.414062 -7.03125 4.03125 -7.03125 C 4.675781 -7.03125 5.160156 -6.890625 5.484375 -6.609375 C 5.804688 -6.328125 5.96875 -5.9375 5.96875 -5.4375 C 5.96875 -4.6875 5.617188 -4.09375 4.921875 -3.65625 C 4.222656 -3.226562 3.226562 -3.015625 1.9375 -3.015625 L 1.71875 -3.015625 L 1.703125 -2.515625 C 1.703125 -1.960938 1.828125 -1.53125 2.078125 -1.21875 C 2.335938 -0.914062 2.738281 -0.765625 3.28125 -0.765625 C 3.550781 -0.765625 3.820312 -0.800781 4.09375 -0.875 C 4.375 -0.945312 4.722656 -1.085938 5.140625 -1.296875 L 5.140625 -0.375 C 4.742188 -0.1875 4.394531 -0.0546875 4.09375 0.015625 C 3.789062 0.0859375 3.457031 0.125 3.09375 0.125 Z M 3.96875 -6.125 C 3.539062 -6.125 3.132812 -5.925781 2.75 -5.53125 C 2.375 -5.132812 2.082031 -4.585938 1.875 -3.890625 L 1.953125 -3.890625 C 2.910156 -3.890625 3.644531 -4.015625 4.15625 -4.265625 C 4.664062 -4.515625 4.921875 -4.875 4.921875 -5.34375 C 4.921875 -5.570312 4.84375 -5.757812 4.6875 -5.90625 C 4.539062 -6.050781 4.300781 -6.125 3.96875 -6.125 Z M 3.671875 -7.984375 C 3.910156 -8.234375 4.175781 -8.550781 4.46875 -8.9375 C 4.757812 -9.320312 4.984375 -9.632812 5.140625 -9.875 L 6.328125 -9.875 L 6.328125 -9.75 C 6.171875 -9.539062 5.878906 -9.222656 5.453125 -8.796875 C 5.023438 -8.367188 4.65625 -8.039062 4.34375 -7.8125 L 3.671875 -7.8125 Z M 3.671875 -7.984375 "/></g></g></g><g fill="#ffffff" fill-opacity="1"><g transform="translate(88.236397, 74.870431)"><g/></g></g><g fill="#ffffff" fill-opacity="1"><g transform="translate(91.585569, 74.870431)"><g><path d="M 4.03125 -7.03125 C 4.425781 -7.03125 4.773438 -6.921875 5.078125 -6.703125 C 5.378906 -6.492188 5.609375 -6.195312 5.765625 -5.8125 L 5.84375 -5.8125 L 6.265625 -6.90625 L 7.046875 -6.90625 L 4.9375 3.09375 L 3.890625 3.09375 L 4.53125 0.078125 C 4.5625 -0.109375 4.679688 -0.570312 4.890625 -1.3125 L 4.828125 -1.3125 C 4.429688 -0.800781 4.046875 -0.429688 3.671875 -0.203125 C 3.296875 0.015625 2.90625 0.125 2.5 0.125 C 1.914062 0.125 1.453125 -0.078125 1.109375 -0.484375 C 0.773438 -0.890625 0.609375 -1.460938 0.609375 -2.203125 C 0.609375 -3.085938 0.757812 -3.90625 1.0625 -4.65625 C 1.375 -5.414062 1.785156 -6 2.296875 -6.40625 C 2.816406 -6.820312 3.394531 -7.03125 4.03125 -7.03125 Z M 2.828125 -0.75 C 3.210938 -0.75 3.609375 -0.941406 4.015625 -1.328125 C 4.429688 -1.710938 4.765625 -2.207031 5.015625 -2.8125 C 5.273438 -3.425781 5.40625 -4.054688 5.40625 -4.703125 C 5.40625 -5.148438 5.289062 -5.5 5.0625 -5.75 C 4.832031 -6.007812 4.507812 -6.140625 4.09375 -6.140625 C 3.675781 -6.140625 3.28125 -5.960938 2.90625 -5.609375 C 2.539062 -5.253906 2.25 -4.765625 2.03125 -4.140625 C 1.8125 -3.515625 1.703125 -2.859375 1.703125 -2.171875 C 1.703125 -1.222656 2.078125 -0.75 2.828125 -0.75 Z M 2.828125 -0.75 "/></g></g></g><g fill="#ffffff" fill-opacity="1"><g transform="translate(99.026774, 74.870431)"><g><path d="M 2.84375 -6.90625 L 1.890625 -2.53125 C 1.816406 -2.15625 1.78125 -1.863281 1.78125 -1.65625 C 1.78125 -1.050781 2.085938 -0.75 2.703125 -0.75 C 3.078125 -0.75 3.441406 -0.875 3.796875 -1.125 C 4.148438 -1.375 4.460938 -1.734375 4.734375 -2.203125 C 5.015625 -2.679688 5.222656 -3.25 5.359375 -3.90625 L 5.984375 -6.90625 L 7.03125 -6.90625 L 5.578125 0 L 4.703125 0 L 4.84375 -1.28125 L 4.765625 -1.28125 C 4.359375 -0.75 3.96875 -0.378906 3.59375 -0.171875 C 3.21875 0.0234375 2.832031 0.125 2.4375 0.125 C 1.894531 0.125 1.472656 -0.0195312 1.171875 -0.3125 C 0.867188 -0.601562 0.71875 -1.019531 0.71875 -1.5625 C 0.71875 -1.820312 0.757812 -2.179688 0.84375 -2.640625 L 1.765625 -6.90625 Z M 2.84375 -6.90625 "/></g></g></g><g fill="#ffffff" fill-opacity="1"><g transform="translate(106.46798, 74.870431)"><g><path d="M 1.421875 0 L 0.375 0 L 1.84375 -6.90625 L 2.90625 -6.90625 Z M 2.140625 -8.65625 C 2.140625 -8.894531 2.207031 -9.085938 2.34375 -9.234375 C 2.476562 -9.378906 2.648438 -9.453125 2.859375 -9.453125 C 3.234375 -9.453125 3.421875 -9.265625 3.421875 -8.890625 C 3.421875 -8.660156 3.347656 -8.460938 3.203125 -8.296875 C 3.066406 -8.140625 2.90625 -8.0625 2.71875 -8.0625 C 2.550781 -8.0625 2.410156 -8.113281 2.296875 -8.21875 C 2.191406 -8.320312 2.140625 -8.46875 2.140625 -8.65625 Z M 2.140625 -8.65625 "/></g></g></g><g fill="#ffffff" fill-opacity="1"><g transform="translate(109.741607, 74.870431)"><g/></g></g><g fill="#ffffff" fill-opacity="1"><g transform="translate(113.090778, 74.870431)"><g><path d="M 1.40625 0 L 0.609375 -6.90625 L 1.671875 -6.90625 L 2.078125 -3.046875 C 2.179688 -1.960938 2.234375 -1.203125 2.234375 -0.765625 L 2.265625 -0.765625 C 2.796875 -1.921875 3.171875 -2.695312 3.390625 -3.09375 L 5.4375 -6.90625 L 6.5625 -6.90625 L 2.84375 0 Z M 1.40625 0 "/></g></g></g><g fill="#ffffff" fill-opacity="1"><g transform="translate(119.046261, 74.870431)"><g><path d="M 1.421875 0 L 0.375 0 L 1.84375 -6.90625 L 2.90625 -6.90625 Z M 2.140625 -8.65625 C 2.140625 -8.894531 2.207031 -9.085938 2.34375 -9.234375 C 2.476562 -9.378906 2.648438 -9.453125 2.859375 -9.453125 C 3.234375 -9.453125 3.421875 -9.265625 3.421875 -8.890625 C 3.421875 -8.660156 3.347656 -8.460938 3.203125 -8.296875 C 3.066406 -8.140625 2.90625 -8.0625 2.71875 -8.0625 C 2.550781 -8.0625 2.410156 -8.113281 2.296875 -8.21875 C 2.191406 -8.320312 2.140625 -8.46875 2.140625 -8.65625 Z M 2.140625 -8.65625 "/></g></g></g><g fill="#ffffff" fill-opacity="1"><g transform="translate(122.319888, 74.870431)"><g><path d="M 3.09375 0.125 C 2.320312 0.125 1.710938 -0.101562 1.265625 -0.5625 C 0.828125 -1.019531 0.609375 -1.65625 0.609375 -2.46875 C 0.609375 -3.25 0.765625 -4 1.078125 -4.71875 C 1.390625 -5.445312 1.804688 -6.015625 2.328125 -6.421875 C 2.847656 -6.828125 3.414062 -7.03125 4.03125 -7.03125 C 4.675781 -7.03125 5.160156 -6.890625 5.484375 -6.609375 C 5.804688 -6.328125 5.96875 -5.9375 5.96875 -5.4375 C 5.96875 -4.6875 5.617188 -4.09375 4.921875 -3.65625 C 4.222656 -3.226562 3.226562 -3.015625 1.9375 -3.015625 L 1.71875 -3.015625 L 1.703125 -2.515625 C 1.703125 -1.960938 1.828125 -1.53125 2.078125 -1.21875 C 2.335938 -0.914062 2.738281 -0.765625 3.28125 -0.765625 C 3.550781 -0.765625 3.820312 -0.800781 4.09375 -0.875 C 4.375 -0.945312 4.722656 -1.085938 5.140625 -1.296875 L 5.140625 -0.375 C 4.742188 -0.1875 4.394531 -0.0546875 4.09375 0.015625 C 3.789062 0.0859375 3.457031 0.125 3.09375 0.125 Z M 3.96875 -6.125 C 3.539062 -6.125 3.132812 -5.925781 2.75 -5.53125 C 2.375 -5.132812 2.082031 -4.585938 1.875 -3.890625 L 1.953125 -3.890625 C 2.910156 -3.890625 3.644531 -4.015625 4.15625 -4.265625 C 4.664062 -4.515625 4.921875 -4.875 4.921875 -5.34375 C 4.921875 -5.570312 4.84375 -5.757812 4.6875 -5.90625 C 4.539062 -6.050781 4.300781 -6.125 3.96875 -6.125 Z M 3.96875 -6.125 "/></g></g></g><g fill="#ffffff" fill-opacity="1"><g transform="translate(128.678284, 74.870431)"><g><path d="M 4.59375 0 L 5.515625 -4.359375 C 5.597656 -4.796875 5.640625 -5.097656 5.640625 -5.265625 C 5.640625 -5.523438 5.566406 -5.734375 5.421875 -5.890625 C 5.273438 -6.054688 5.035156 -6.140625 4.703125 -6.140625 C 4.328125 -6.140625 3.960938 -6.007812 3.609375 -5.75 C 3.253906 -5.5 2.941406 -5.140625 2.671875 -4.671875 C 2.398438 -4.210938 2.195312 -3.648438 2.0625 -2.984375 L 1.421875 0 L 0.375 0 L 1.84375 -6.90625 L 2.71875 -6.90625 L 2.578125 -5.625 L 2.640625 -5.625 C 3.046875 -6.132812 3.4375 -6.492188 3.8125 -6.703125 C 4.1875 -6.921875 4.578125 -7.03125 4.984375 -7.03125 C 5.515625 -7.03125 5.929688 -6.882812 6.234375 -6.59375 C 6.546875 -6.300781 6.703125 -5.890625 6.703125 -5.359375 C 6.703125 -5.023438 6.65625 -4.648438 6.5625 -4.234375 L 5.65625 0 Z M 4.59375 0 "/></g></g></g><g fill="#ffffff" fill-opacity="1"><g transform="translate(136.119484, 74.870431)"><g><path d="M 2.484375 -0.734375 C 2.710938 -0.734375 3.015625 -0.789062 3.390625 -0.90625 L 3.390625 -0.09375 C 3.242188 -0.03125 3.066406 0.0195312 2.859375 0.0625 C 2.648438 0.101562 2.484375 0.125 2.359375 0.125 C 1.835938 0.125 1.4375 0 1.15625 -0.25 C 0.875 -0.5 0.734375 -0.867188 0.734375 -1.359375 C 0.734375 -1.640625 0.769531 -1.957031 0.84375 -2.3125 L 1.65625 -6.09375 L 0.5625 -6.09375 L 0.65625 -6.5625 L 1.8125 -7.046875 L 2.609375 -8.484375 L 3.21875 -8.484375 L 2.875 -6.90625 L 4.59375 -6.90625 L 4.4375 -6.09375 L 2.71875 -6.09375 L 1.90625 -2.296875 C 1.832031 -1.929688 1.796875 -1.65625 1.796875 -1.46875 C 1.796875 -1.226562 1.851562 -1.046875 1.96875 -0.921875 C 2.09375 -0.796875 2.265625 -0.734375 2.484375 -0.734375 Z M 2.484375 -0.734375 "/></g></g></g><g fill="#ffffff" fill-opacity="1"><g transform="translate(140.299653, 74.870431)"><g/></g></g><g fill="#ffffff" fill-opacity="1"><g transform="translate(143.648825, 74.870431)"><g><path d="M 4.015625 -7.03125 C 4.398438 -7.03125 4.742188 -6.925781 5.046875 -6.71875 C 5.347656 -6.507812 5.585938 -6.207031 5.765625 -5.8125 L 5.828125 -5.8125 L 6.25 -6.90625 L 7.046875 -6.90625 L 5.578125 0 L 4.75 0 L 4.90625 -1.3125 L 4.859375 -1.3125 C 4.109375 -0.351562 3.316406 0.125 2.484375 0.125 C 1.898438 0.125 1.441406 -0.0820312 1.109375 -0.5 C 0.773438 -0.914062 0.609375 -1.484375 0.609375 -2.203125 C 0.609375 -3.078125 0.757812 -3.882812 1.0625 -4.625 C 1.363281 -5.375 1.773438 -5.960938 2.296875 -6.390625 C 2.816406 -6.816406 3.390625 -7.03125 4.015625 -7.03125 Z M 2.828125 -0.75 C 3.234375 -0.75 3.632812 -0.941406 4.03125 -1.328125 C 4.4375 -1.710938 4.765625 -2.21875 5.015625 -2.84375 C 5.273438 -3.46875 5.40625 -4.09375 5.40625 -4.71875 C 5.40625 -5.15625 5.285156 -5.5 5.046875 -5.75 C 4.816406 -6.007812 4.507812 -6.140625 4.125 -6.140625 C 3.6875 -6.140625 3.28125 -5.957031 2.90625 -5.59375 C 2.53125 -5.226562 2.234375 -4.738281 2.015625 -4.125 C 1.804688 -3.507812 1.703125 -2.859375 1.703125 -2.171875 C 1.703125 -1.691406 1.800781 -1.332031 2 -1.09375 C 2.195312 -0.863281 2.472656 -0.75 2.828125 -0.75 Z M 5.1875 -7.8125 L 4.53125 -7.8125 C 4.269531 -8.0625 4 -8.378906 3.71875 -8.765625 C 3.4375 -9.160156 3.238281 -9.488281 3.125 -9.75 L 3.125 -9.875 L 4.265625 -9.875 C 4.441406 -9.300781 4.75 -8.664062 5.1875 -7.96875 Z M 5.1875 -7.8125 "/></g></g></g><g fill="#ffffff" fill-opacity="1"><g transform="translate(150.932647, 74.870431)"><g/></g></g><g fill="#ffffff" fill-opacity="1"><g transform="translate(154.281819, 74.870431)"><g><path d="M 1.40625 0 L 0.609375 -6.90625 L 1.671875 -6.90625 L 2.078125 -3.046875 C 2.179688 -1.960938 2.234375 -1.203125 2.234375 -0.765625 L 2.265625 -0.765625 C 2.796875 -1.921875 3.171875 -2.695312 3.390625 -3.09375 L 5.4375 -6.90625 L 6.5625 -6.90625 L 2.84375 0 Z M 1.40625 0 "/></g></g></g><g fill="#ffffff" fill-opacity="1"><g transform="translate(160.237296, 74.870431)"><g><path d="M 4.046875 -6.984375 C 4.847656 -6.984375 5.476562 -6.75 5.9375 -6.28125 C 6.394531 -5.8125 6.625 -5.160156 6.625 -4.328125 C 6.625 -3.535156 6.472656 -2.789062 6.171875 -2.09375 C 5.867188 -1.394531 5.457031 -0.851562 4.9375 -0.46875 C 4.425781 -0.09375 3.847656 0.09375 3.203125 0.09375 C 2.390625 0.09375 1.753906 -0.140625 1.296875 -0.609375 C 0.835938 -1.085938 0.609375 -1.738281 0.609375 -2.5625 C 0.609375 -3.351562 0.757812 -4.097656 1.0625 -4.796875 C 1.375 -5.503906 1.789062 -6.046875 2.3125 -6.421875 C 2.832031 -6.796875 3.410156 -6.984375 4.046875 -6.984375 Z M 5.53125 -4.46875 C 5.53125 -4.957031 5.398438 -5.347656 5.140625 -5.640625 C 4.878906 -5.941406 4.523438 -6.09375 4.078125 -6.09375 C 3.617188 -6.09375 3.207031 -5.9375 2.84375 -5.625 C 2.476562 -5.320312 2.195312 -4.894531 2 -4.34375 C 1.800781 -3.789062 1.703125 -3.175781 1.703125 -2.5 C 1.703125 -1.945312 1.832031 -1.519531 2.09375 -1.21875 C 2.363281 -0.925781 2.75 -0.78125 3.25 -0.78125 C 3.6875 -0.78125 4.078125 -0.929688 4.421875 -1.234375 C 4.773438 -1.535156 5.046875 -1.96875 5.234375 -2.53125 C 5.429688 -3.101562 5.53125 -3.75 5.53125 -4.46875 Z M 5.53125 -4.46875 "/></g></g></g><g fill="#ffffff" fill-opacity="1"><g transform="translate(167.470755, 74.870431)"><g><path d="M 2.84375 -6.90625 L 1.890625 -2.53125 C 1.816406 -2.15625 1.78125 -1.863281 1.78125 -1.65625 C 1.78125 -1.050781 2.085938 -0.75 2.703125 -0.75 C 3.078125 -0.75 3.441406 -0.875 3.796875 -1.125 C 4.148438 -1.375 4.460938 -1.734375 4.734375 -2.203125 C 5.015625 -2.679688 5.222656 -3.25 5.359375 -3.90625 L 5.984375 -6.90625 L 7.03125 -6.90625 L 5.578125 0 L 4.703125 0 L 4.84375 -1.28125 L 4.765625 -1.28125 C 4.359375 -0.75 3.96875 -0.378906 3.59375 -0.171875 C 3.21875 0.0234375 2.832031 0.125 2.4375 0.125 C 1.894531 0.125 1.472656 -0.0195312 1.171875 -0.3125 C 0.867188 -0.601562 0.71875 -1.019531 0.71875 -1.5625 C 0.71875 -1.820312 0.757812 -2.179688 0.84375 -2.640625 L 1.765625 -6.90625 Z M 2.84375 -6.90625 "/></g></g></g><g fill="#ffffff" fill-opacity="1"><g transform="translate(174.911966, 74.870431)"><g><path d="M 4.625 -1.953125 C 4.625 -1.296875 4.390625 -0.785156 3.921875 -0.421875 C 3.460938 -0.0546875 2.8125 0.125 1.96875 0.125 C 1.257812 0.125 0.617188 -0.0195312 0.046875 -0.3125 L 0.046875 -1.296875 C 0.335938 -1.117188 0.65625 -0.984375 1 -0.890625 C 1.34375 -0.796875 1.65625 -0.75 1.9375 -0.75 C 2.46875 -0.75 2.867188 -0.851562 3.140625 -1.0625 C 3.410156 -1.269531 3.546875 -1.539062 3.546875 -1.875 C 3.546875 -2.113281 3.472656 -2.3125 3.328125 -2.46875 C 3.179688 -2.632812 2.863281 -2.859375 2.375 -3.140625 C 1.820312 -3.453125 1.429688 -3.753906 1.203125 -4.046875 C 0.984375 -4.335938 0.875 -4.6875 0.875 -5.09375 C 0.875 -5.664062 1.082031 -6.128906 1.5 -6.484375 C 1.925781 -6.847656 2.488281 -7.03125 3.1875 -7.03125 C 3.90625 -7.03125 4.597656 -6.875 5.265625 -6.5625 L 4.921875 -5.703125 L 4.5625 -5.859375 C 4.144531 -6.035156 3.6875 -6.125 3.1875 -6.125 C 2.789062 -6.125 2.484375 -6.03125 2.265625 -5.84375 C 2.046875 -5.664062 1.9375 -5.429688 1.9375 -5.140625 C 1.9375 -4.910156 2.007812 -4.707031 2.15625 -4.53125 C 2.300781 -4.363281 2.609375 -4.148438 3.078125 -3.890625 C 3.523438 -3.640625 3.847656 -3.421875 4.046875 -3.234375 C 4.242188 -3.054688 4.390625 -2.863281 4.484375 -2.65625 C 4.578125 -2.445312 4.625 -2.210938 4.625 -1.953125 Z M 4.625 -1.953125 "/></g></g></g><g fill="#ffffff" fill-opacity="1"><g transform="translate(180.433066, 74.870431)"><g/></g></g><g fill="#ffffff" fill-opacity="1"><g transform="translate(183.782238, 74.870431)"><g><path d="M 3.5 -9.203125 L 1.765625 -2.53125 L 1.078125 -2.53125 C 1.285156 -3.820312 1.65625 -6.046875 2.1875 -9.203125 Z M 0.265625 -0.484375 C 0.265625 -0.804688 0.347656 -1.054688 0.515625 -1.234375 C 0.679688 -1.421875 0.910156 -1.515625 1.203125 -1.515625 C 1.390625 -1.515625 1.539062 -1.457031 1.65625 -1.34375 C 1.769531 -1.226562 1.828125 -1.0625 1.828125 -0.84375 C 1.828125 -0.550781 1.742188 -0.304688 1.578125 -0.109375 C 1.421875 0.0859375 1.203125 0.1875 0.921875 0.1875 C 0.710938 0.1875 0.550781 0.125 0.4375 0 C 0.320312 -0.113281 0.265625 -0.273438 0.265625 -0.484375 Z M 0.265625 -0.484375 "/></g></g></g></svg>