<svg xmlns="http://www.w3.org/2000/svg" xmlns:xlink="http://www.w3.org/1999/xlink" width="280" zoomAndPan="magnify" viewBox="0 0 210 74.249996" height="99" preserveAspectRatio="xMidYMid meet" version="1.0"><defs><g/><clipPath id="6d84c116dd"><path d="M 43.589844 2 L 166 2 L 166 27.472656 L 43.589844 27.472656 Z M 43.589844 2 " clip-rule="nonzero"/></clipPath></defs><g fill="#ffffff" fill-opacity="1"><g transform="translate(25.231312, 51.914796)"><g><path d="M 7.4375 0 L 0.421875 -23.421875 L 4.796875 -23.421875 L 9.78125 -6.1875 L 14.96875 -22.0625 L 18.234375 -22.0625 L 23.421875 -6.1875 L 28.421875 -23.421875 L 32.796875 -23.421875 L 25.765625 0 L 21.703125 0 L 16.59375 -15.421875 L 11.5 0 Z M 7.4375 0 "/></g></g></g><g fill="#ffffff" fill-opacity="1"><g transform="translate(58.436299, 51.914796)"><g><path d="M 6.9375 0.328125 C 5.800781 0.328125 4.773438 0.117188 3.859375 -0.296875 C 2.953125 -0.710938 2.234375 -1.328125 1.703125 -2.140625 C 1.171875 -2.953125 0.90625 -3.9375 0.90625 -5.09375 C 0.90625 -5.988281 1.070312 -6.738281 1.40625 -7.34375 C 1.75 -7.957031 2.21875 -8.453125 2.8125 -8.828125 C 3.414062 -9.203125 4.117188 -9.46875 4.921875 -9.625 C 5.722656 -9.789062 6.585938 -9.875 7.515625 -9.875 L 11.828125 -9.875 C 11.828125 -10.925781 11.546875 -11.769531 10.984375 -12.40625 C 10.429688 -13.050781 9.617188 -13.375 8.546875 -13.375 C 7.921875 -13.375 7.351562 -13.265625 6.84375 -13.046875 C 6.34375 -12.828125 5.910156 -12.539062 5.546875 -12.1875 C 5.191406 -11.832031 4.894531 -11.453125 4.65625 -11.046875 L 1.5625 -13.28125 C 2.09375 -14.007812 2.6875 -14.644531 3.34375 -15.1875 C 4.007812 -15.726562 4.765625 -16.148438 5.609375 -16.453125 C 6.460938 -16.753906 7.429688 -16.90625 8.515625 -16.90625 C 10.023438 -16.90625 11.3125 -16.613281 12.375 -16.03125 C 13.4375 -15.457031 14.253906 -14.648438 14.828125 -13.609375 C 15.398438 -12.578125 15.6875 -11.390625 15.6875 -10.046875 L 15.6875 0 L 12.34375 0 L 12.078125 -2.375 C 11.378906 -1.332031 10.59375 -0.617188 9.71875 -0.234375 C 8.84375 0.140625 7.914062 0.328125 6.9375 0.328125 Z M 7.515625 -3.078125 C 8.085938 -3.078125 8.628906 -3.179688 9.140625 -3.390625 C 9.648438 -3.597656 10.101562 -3.882812 10.5 -4.25 C 10.894531 -4.613281 11.207031 -5.023438 11.4375 -5.484375 C 11.675781 -5.953125 11.804688 -6.445312 11.828125 -6.96875 L 7.75 -6.96875 C 6.820312 -6.96875 6.140625 -6.757812 5.703125 -6.34375 C 5.273438 -5.9375 5.0625 -5.472656 5.0625 -4.953125 C 5.0625 -4.410156 5.269531 -3.960938 5.6875 -3.609375 C 6.113281 -3.253906 6.722656 -3.078125 7.515625 -3.078125 Z M 7.515625 -3.078125 "/></g></g></g><g fill="#ffffff" fill-opacity="1"><g transform="translate(76.025163, 51.914796)"><g><path d="M 7.390625 0.328125 C 6.234375 0.328125 5.175781 0.117188 4.21875 -0.296875 C 3.269531 -0.710938 2.472656 -1.269531 1.828125 -1.96875 C 1.179688 -2.675781 0.722656 -3.457031 0.453125 -4.3125 L 3.65625 -5.734375 C 3.8125 -5.335938 4.019531 -4.925781 4.28125 -4.5 C 4.550781 -4.082031 4.921875 -3.726562 5.390625 -3.4375 C 5.859375 -3.15625 6.457031 -3.015625 7.1875 -3.015625 C 7.820312 -3.015625 8.332031 -3.113281 8.71875 -3.3125 C 9.113281 -3.519531 9.40625 -3.78125 9.59375 -4.09375 C 9.78125 -4.40625 9.875 -4.703125 9.875 -4.984375 C 9.875 -5.390625 9.722656 -5.707031 9.421875 -5.9375 C 9.128906 -6.175781 8.734375 -6.375 8.234375 -6.53125 C 7.742188 -6.6875 7.203125 -6.832031 6.609375 -6.96875 C 6.015625 -7.113281 5.421875 -7.289062 4.828125 -7.5 C 4.242188 -7.71875 3.703125 -8 3.203125 -8.34375 C 2.703125 -8.6875 2.300781 -9.128906 2 -9.671875 C 1.707031 -10.222656 1.5625 -10.914062 1.5625 -11.75 C 1.5625 -12.625 1.726562 -13.382812 2.0625 -14.03125 C 2.394531 -14.675781 2.847656 -15.210938 3.421875 -15.640625 C 4.003906 -16.066406 4.664062 -16.382812 5.40625 -16.59375 C 6.144531 -16.800781 6.910156 -16.90625 7.703125 -16.90625 C 9.128906 -16.90625 10.375 -16.582031 11.4375 -15.9375 C 12.507812 -15.300781 13.363281 -14.425781 14 -13.3125 L 10.859375 -11.609375 C 10.671875 -11.953125 10.4375 -12.28125 10.15625 -12.59375 C 9.875 -12.914062 9.519531 -13.179688 9.09375 -13.390625 C 8.675781 -13.597656 8.171875 -13.703125 7.578125 -13.703125 C 6.910156 -13.703125 6.382812 -13.5625 6 -13.28125 C 5.625 -13 5.4375 -12.664062 5.4375 -12.28125 C 5.4375 -11.925781 5.585938 -11.640625 5.890625 -11.421875 C 6.191406 -11.203125 6.59375 -11.007812 7.09375 -10.84375 C 7.601562 -10.6875 8.15625 -10.523438 8.75 -10.359375 C 9.351562 -10.191406 9.953125 -9.988281 10.546875 -9.75 C 11.140625 -9.507812 11.6875 -9.195312 12.1875 -8.8125 C 12.695312 -8.4375 13.101562 -7.957031 13.40625 -7.375 C 13.707031 -6.789062 13.859375 -6.0625 13.859375 -5.1875 C 13.859375 -4.226562 13.671875 -3.398438 13.296875 -2.703125 C 12.921875 -2.015625 12.421875 -1.441406 11.796875 -0.984375 C 11.171875 -0.535156 10.476562 -0.207031 9.71875 0 C 8.957031 0.21875 8.179688 0.328125 7.390625 0.328125 Z M 7.390625 0.328125 "/></g></g></g><g fill="#ffffff" fill-opacity="1"><g transform="translate(91.094227, 51.914796)"><g><path d="M 2.4375 0 L 2.4375 -23.421875 L 6.546875 -23.421875 L 6.546875 -14.640625 C 7.210938 -15.453125 7.972656 -16.03125 8.828125 -16.375 C 9.691406 -16.726562 10.53125 -16.90625 11.34375 -16.90625 C 12.425781 -16.90625 13.351562 -16.707031 14.125 -16.3125 C 14.894531 -15.925781 15.523438 -15.398438 16.015625 -14.734375 C 16.515625 -14.066406 16.878906 -13.316406 17.109375 -12.484375 C 17.335938 -11.648438 17.453125 -10.804688 17.453125 -9.953125 L 17.453125 0 L 13.34375 0 L 13.34375 -9.4375 C 13.34375 -10.125 13.257812 -10.753906 13.09375 -11.328125 C 12.9375 -11.898438 12.644531 -12.363281 12.21875 -12.71875 C 11.800781 -13.070312 11.179688 -13.25 10.359375 -13.25 C 9.492188 -13.25 8.78125 -13.035156 8.21875 -12.609375 C 7.65625 -12.179688 7.234375 -11.597656 6.953125 -10.859375 C 6.679688 -10.128906 6.546875 -9.304688 6.546875 -8.390625 L 6.546875 0 Z M 2.4375 0 "/></g></g></g><g fill="#ffffff" fill-opacity="1"><g transform="translate(110.473475, 51.914796)"><g><path d="M 22 -1.296875 L 19.140625 1.265625 L 16.0625 -2.265625 C 15.113281 -1.441406 14.039062 -0.796875 12.84375 -0.328125 C 11.65625 0.140625 10.375 0.375 9 0.375 C 7.925781 0.375 6.925781 0.25 6 0 C 5.070312 -0.25 4.253906 -0.625 3.546875 -1.125 C 2.847656 -1.625 2.300781 -2.238281 1.90625 -2.96875 C 1.519531 -3.695312 1.328125 -4.53125 1.328125 -5.46875 C 1.328125 -6.351562 1.472656 -7.148438 1.765625 -7.859375 C 2.066406 -8.578125 2.472656 -9.21875 2.984375 -9.78125 C 3.503906 -10.351562 4.085938 -10.875 4.734375 -11.34375 C 5.378906 -11.820312 6.050781 -12.269531 6.75 -12.6875 C 6.488281 -12.9375 6.203125 -13.242188 5.890625 -13.609375 C 5.578125 -13.984375 5.273438 -14.40625 4.984375 -14.875 C 4.691406 -15.34375 4.453125 -15.859375 4.265625 -16.421875 C 4.078125 -16.984375 3.984375 -17.578125 3.984375 -18.203125 C 3.984375 -19.066406 4.164062 -19.835938 4.53125 -20.515625 C 4.90625 -21.191406 5.398438 -21.769531 6.015625 -22.25 C 6.640625 -22.726562 7.335938 -23.085938 8.109375 -23.328125 C 8.878906 -23.578125 9.664062 -23.703125 10.46875 -23.703125 C 11.3125 -23.703125 12.109375 -23.5625 12.859375 -23.28125 C 13.617188 -23.007812 14.28125 -22.625 14.84375 -22.125 C 15.414062 -21.632812 15.863281 -21.054688 16.1875 -20.390625 C 16.507812 -19.722656 16.671875 -19.003906 16.671875 -18.234375 C 16.671875 -17.296875 16.476562 -16.453125 16.09375 -15.703125 C 15.707031 -14.960938 15.191406 -14.289062 14.546875 -13.6875 C 13.910156 -13.082031 13.210938 -12.519531 12.453125 -12 L 15.765625 -8.296875 C 16.140625 -9.347656 16.328125 -10.425781 16.328125 -11.53125 L 20.28125 -11.140625 C 20.21875 -10.066406 20.035156 -9.023438 19.734375 -8.015625 C 19.441406 -7.015625 19.035156 -6.078125 18.515625 -5.203125 Z M 7.875 -18.140625 C 7.875 -17.734375 7.984375 -17.296875 8.203125 -16.828125 C 8.429688 -16.367188 8.703125 -15.929688 9.015625 -15.515625 C 9.328125 -15.109375 9.601562 -14.757812 9.84375 -14.46875 C 10.425781 -14.820312 10.953125 -15.1875 11.421875 -15.5625 C 11.890625 -15.9375 12.257812 -16.335938 12.53125 -16.765625 C 12.800781 -17.191406 12.9375 -17.660156 12.9375 -18.171875 C 12.9375 -18.585938 12.84375 -18.972656 12.65625 -19.328125 C 12.476562 -19.691406 12.207031 -19.984375 11.84375 -20.203125 C 11.476562 -20.429688 11.03125 -20.546875 10.5 -20.546875 C 10.03125 -20.546875 9.597656 -20.453125 9.203125 -20.265625 C 8.804688 -20.085938 8.484375 -19.816406 8.234375 -19.453125 C 7.992188 -19.097656 7.875 -18.660156 7.875 -18.140625 Z M 8.90625 -3.046875 C 9.863281 -3.046875 10.742188 -3.21875 11.546875 -3.5625 C 12.359375 -3.914062 13.070312 -4.390625 13.6875 -4.984375 L 9.265625 -10.046875 C 8.523438 -9.585938 7.847656 -9.125 7.234375 -8.65625 C 6.628906 -8.195312 6.140625 -7.703125 5.765625 -7.171875 C 5.398438 -6.640625 5.21875 -6.050781 5.21875 -5.40625 C 5.21875 -4.625 5.5625 -4.035156 6.25 -3.640625 C 6.9375 -3.242188 7.820312 -3.046875 8.90625 -3.046875 Z M 8.90625 -3.046875 "/></g></g></g><g fill="#ffffff" fill-opacity="1"><g transform="translate(133.383753, 51.914796)"><g><path d="M 12.703125 0.328125 C 11.160156 0.328125 9.78125 0.117188 8.5625 -0.296875 C 7.34375 -0.710938 6.28125 -1.296875 5.375 -2.046875 C 4.476562 -2.804688 3.726562 -3.691406 3.125 -4.703125 C 2.53125 -5.710938 2.085938 -6.8125 1.796875 -8 C 1.503906 -9.195312 1.359375 -10.4375 1.359375 -11.71875 C 1.359375 -13 1.5 -14.234375 1.78125 -15.421875 C 2.070312 -16.617188 2.515625 -17.722656 3.109375 -18.734375 C 3.703125 -19.753906 4.445312 -20.644531 5.34375 -21.40625 C 6.238281 -22.164062 7.296875 -22.753906 8.515625 -23.171875 C 9.734375 -23.597656 11.117188 -23.8125 12.671875 -23.8125 C 14.203125 -23.8125 15.625 -23.550781 16.9375 -23.03125 C 18.25 -22.519531 19.410156 -21.765625 20.421875 -20.765625 C 21.429688 -19.765625 22.25 -18.535156 22.875 -17.078125 L 19.140625 -15.515625 C 18.796875 -16.578125 18.296875 -17.445312 17.640625 -18.125 C 16.992188 -18.800781 16.242188 -19.300781 15.390625 -19.625 C 14.546875 -19.957031 13.628906 -20.125 12.640625 -20.125 C 11.398438 -20.125 10.332031 -19.898438 9.4375 -19.453125 C 8.539062 -19.003906 7.800781 -18.394531 7.21875 -17.625 C 6.644531 -16.863281 6.21875 -15.988281 5.9375 -15 C 5.664062 -14.007812 5.53125 -12.972656 5.53125 -11.890625 C 5.53125 -10.722656 5.664062 -9.628906 5.9375 -8.609375 C 6.21875 -7.585938 6.648438 -6.6875 7.234375 -5.90625 C 7.816406 -5.125 8.554688 -4.515625 9.453125 -4.078125 C 10.359375 -3.648438 11.441406 -3.4375 12.703125 -3.4375 C 13.828125 -3.4375 14.851562 -3.671875 15.78125 -4.140625 C 16.707031 -4.617188 17.476562 -5.296875 18.09375 -6.171875 C 18.707031 -7.054688 19.09375 -8.085938 19.25 -9.265625 L 13.921875 -9.265625 L 13.921875 -12.671875 L 23.328125 -12.671875 L 23.328125 0 L 20 0 L 19.625 -3.296875 C 19.207031 -2.566406 18.65625 -1.925781 17.96875 -1.375 C 17.28125 -0.832031 16.488281 -0.410156 15.59375 -0.109375 C 14.695312 0.179688 13.734375 0.328125 12.703125 0.328125 Z M 12.703125 0.328125 "/></g></g></g><g fill="#ffffff" fill-opacity="1"><g transform="translate(158.813826, 51.914796)"><g><path d="M 12.671875 0.328125 C 11.117188 0.328125 9.734375 0.117188 8.515625 -0.296875 C 7.296875 -0.710938 6.238281 -1.300781 5.34375 -2.0625 C 4.445312 -2.820312 3.703125 -3.707031 3.109375 -4.71875 C 2.515625 -5.738281 2.070312 -6.84375 1.78125 -8.03125 C 1.5 -9.21875 1.359375 -10.445312 1.359375 -11.71875 C 1.359375 -13 1.5 -14.226562 1.78125 -15.40625 C 2.070312 -16.59375 2.515625 -17.695312 3.109375 -18.71875 C 3.703125 -19.738281 4.445312 -20.625 5.34375 -21.375 C 6.238281 -22.132812 7.296875 -22.722656 8.515625 -23.140625 C 9.734375 -23.566406 11.117188 -23.78125 12.671875 -23.78125 C 14.210938 -23.78125 15.59375 -23.566406 16.8125 -23.140625 C 18.039062 -22.722656 19.101562 -22.132812 20 -21.375 C 20.894531 -20.625 21.632812 -19.738281 22.21875 -18.71875 C 22.8125 -17.695312 23.25 -16.59375 23.53125 -15.40625 C 23.820312 -14.226562 23.96875 -13 23.96875 -11.71875 C 23.96875 -10.445312 23.820312 -9.21875 23.53125 -8.03125 C 23.25 -6.84375 22.8125 -5.738281 22.21875 -4.71875 C 21.632812 -3.707031 20.894531 -2.820312 20 -2.0625 C 19.101562 -1.300781 18.039062 -0.710938 16.8125 -0.296875 C 15.59375 0.117188 14.210938 0.328125 12.671875 0.328125 Z M 12.671875 -3.40625 C 13.929688 -3.40625 14.992188 -3.625 15.859375 -4.0625 C 16.734375 -4.507812 17.4375 -5.117188 17.96875 -5.890625 C 18.507812 -6.671875 18.90625 -7.5625 19.15625 -8.5625 C 19.40625 -9.5625 19.53125 -10.613281 19.53125 -11.71875 C 19.53125 -12.820312 19.40625 -13.867188 19.15625 -14.859375 C 18.90625 -15.859375 18.507812 -16.742188 17.96875 -17.515625 C 17.4375 -18.296875 16.734375 -18.910156 15.859375 -19.359375 C 14.992188 -19.804688 13.929688 -20.03125 12.671875 -20.03125 C 11.410156 -20.03125 10.34375 -19.804688 9.46875 -19.359375 C 8.59375 -18.910156 7.882812 -18.296875 7.34375 -17.515625 C 6.8125 -16.742188 6.421875 -15.859375 6.171875 -14.859375 C 5.921875 -13.867188 5.796875 -12.820312 5.796875 -11.71875 C 5.796875 -10.613281 5.921875 -9.5625 6.171875 -8.5625 C 6.421875 -7.5625 6.8125 -6.671875 7.34375 -5.890625 C 7.882812 -5.117188 8.59375 -4.507812 9.46875 -4.0625 C 10.34375 -3.625 11.410156 -3.40625 12.671875 -3.40625 Z M 12.671875 -3.40625 "/></g></g></g><g clip-path="url(#6d84c116dd)"><path fill="#ffffff" d="M 43.769531 27.183594 C 47.347656 13.066406 64.261719 11.355469 90.273438 13.738281 C 85.007812 11.554688 79.125 11.601562 72.8125 10.921875 C 94.191406 0.40625 115.367188 7.191406 127.980469 16.601562 C 148.578125 14.4375 159.574219 18.832031 165.773438 26.511719 C 162.703125 17.480469 150.011719 13.3125 129.726562 12.964844 C 109.847656 0.378906 89.441406 0 68.671875 7.992188 C 62.863281 9.742188 57.222656 11.660156 49.605469 11.308594 C 49.871094 11.980469 50.277344 12.574219 50.921875 12.964844 C 44.941406 16.847656 43.609375 21.835938 43.769531 27.183594 Z M 43.769531 27.183594 " fill-opacity="1" fill-rule="evenodd"/></g></svg>